<?xml version="1.0" standalone="no"?>
<svg xmlns="http://www.w3.org/2000/svg" width="1024" height="1024" viewBox="0 0 1024 1024"><defs><clipPath id="clip-path-dot-color"><rect x="60" y="404" width="43" height="43" transform="rotate(0,81.5,425.5)"/><rect x="60" y="447" width="43" height="43" transform="rotate(0,81.5,468.5)"/><rect x="103" y="447" width="43" height="43" transform="rotate(0,124.5,468.5)"/><rect x="103" y="490" width="43" height="43" transform="rotate(0,124.5,511.5)"/><rect x="103" y="533" width="43" height="43" transform="rotate(0,124.5,554.5)"/><rect x="103" y="576" width="43" height="43" transform="rotate(0,124.5,597.5)"/><rect x="146" y="490" width="43" height="43" transform="rotate(0,167.5,511.5)"/><rect x="146" y="533" width="43" height="43" transform="rotate(0,167.5,554.5)"/><rect x="189" y="490" width="43" height="43" transform="rotate(0,210.5,511.5)"/><rect x="189" y="576" width="43" height="43" transform="rotate(0,210.5,597.5)"/><rect x="232" y="404" width="43" height="43" transform="rotate(0,253.5,425.5)"/><rect x="232" y="490" width="43" height="43" transform="rotate(0,253.5,511.5)"/><rect x="232" y="533" width="43" height="43" transform="rotate(0,253.5,554.5)"/><rect x="232" y="576" width="43" height="43" transform="rotate(0,253.5,597.5)"/><rect x="275" y="404" width="43" height="43" transform="rotate(0,296.5,425.5)"/><rect x="318" y="404" width="43" height="43" transform="rotate(0,339.5,425.5)"/><rect x="318" y="490" width="43" height="43" transform="rotate(0,339.5,511.5)"/><rect x="318" y="576" width="43" height="43" transform="rotate(0,339.5,597.5)"/><rect x="361" y="447" width="43" height="43" transform="rotate(0,382.5,468.5)"/><rect x="361" y="490" width="43" height="43" transform="rotate(0,382.5,511.5)"/><rect x="361" y="533" width="43" height="43" transform="rotate(0,382.5,554.5)"/><rect x="361" y="576" width="43" height="43" transform="rotate(0,382.5,597.5)"/><rect x="404" y="103" width="43" height="43" transform="rotate(0,425.5,124.5)"/><rect x="404" y="146" width="43" height="43" transform="rotate(0,425.5,167.5)"/><rect x="404" y="189" width="43" height="43" transform="rotate(0,425.5,210.5)"/><rect x="404" y="232" width="43" height="43" transform="rotate(0,425.5,253.5)"/><rect x="404" y="275" width="43" height="43" transform="rotate(0,425.5,296.5)"/><rect x="404" y="318" width="43" height="43" transform="rotate(0,425.5,339.5)"/><rect x="404" y="361" width="43" height="43" transform="rotate(0,425.5,382.5)"/><rect x="404" y="705" width="43" height="43" transform="rotate(0,425.5,726.5)"/><rect x="404" y="748" width="43" height="43" transform="rotate(0,425.5,769.5)"/><rect x="404" y="920" width="43" height="43" transform="rotate(0,425.5,941.5)"/><rect x="447" y="146" width="43" height="43" transform="rotate(0,468.5,167.5)"/><rect x="447" y="232" width="43" height="43" transform="rotate(0,468.5,253.5)"/><rect x="447" y="275" width="43" height="43" transform="rotate(0,468.5,296.5)"/><rect x="447" y="361" width="43" height="43" transform="rotate(0,468.5,382.5)"/><rect x="447" y="748" width="43" height="43" transform="rotate(0,468.5,769.5)"/><rect x="447" y="834" width="43" height="43" transform="rotate(0,468.5,855.5)"/><rect x="447" y="877" width="43" height="43" transform="rotate(0,468.5,898.5)"/><rect x="447" y="920" width="43" height="43" transform="rotate(0,468.5,941.5)"/><rect x="490" y="318" width="43" height="43" transform="rotate(0,511.5,339.5)"/><rect x="490" y="361" width="43" height="43" transform="rotate(0,511.5,382.5)"/><rect x="490" y="619" width="43" height="43" transform="rotate(0,511.5,640.5)"/><rect x="490" y="662" width="43" height="43" transform="rotate(0,511.5,683.5)"/><rect x="490" y="705" width="43" height="43" transform="rotate(0,511.5,726.5)"/><rect x="490" y="834" width="43" height="43" transform="rotate(0,511.5,855.5)"/><rect x="490" y="877" width="43" height="43" transform="rotate(0,511.5,898.5)"/><rect x="533" y="103" width="43" height="43" transform="rotate(0,554.5,124.5)"/><rect x="533" y="189" width="43" height="43" transform="rotate(0,554.5,210.5)"/><rect x="533" y="275" width="43" height="43" transform="rotate(0,554.5,296.5)"/><rect x="533" y="705" width="43" height="43" transform="rotate(0,554.5,726.5)"/><rect x="533" y="834" width="43" height="43" transform="rotate(0,554.5,855.5)"/><rect x="533" y="920" width="43" height="43" transform="rotate(0,554.5,941.5)"/><rect x="576" y="275" width="43" height="43" transform="rotate(0,597.5,296.5)"/><rect x="576" y="318" width="43" height="43" transform="rotate(0,597.5,339.5)"/><rect x="576" y="705" width="43" height="43" transform="rotate(0,597.5,726.5)"/><rect x="576" y="877" width="43" height="43" transform="rotate(0,597.5,898.5)"/><rect x="576" y="920" width="43" height="43" transform="rotate(0,597.5,941.5)"/><rect x="619" y="404" width="43" height="43" transform="rotate(0,640.5,425.5)"/><rect x="619" y="576" width="43" height="43" transform="rotate(0,640.5,597.5)"/><rect x="619" y="619" width="43" height="43" transform="rotate(0,640.5,640.5)"/><rect x="619" y="662" width="43" height="43" transform="rotate(0,640.5,683.5)"/><rect x="619" y="748" width="43" height="43" transform="rotate(0,640.5,769.5)"/><rect x="619" y="791" width="43" height="43" transform="rotate(0,640.5,812.5)"/><rect x="619" y="920" width="43" height="43" transform="rotate(0,640.5,941.5)"/><rect x="662" y="404" width="43" height="43" transform="rotate(0,683.5,425.5)"/><rect x="662" y="447" width="43" height="43" transform="rotate(0,683.5,468.5)"/><rect x="662" y="490" width="43" height="43" transform="rotate(0,683.5,511.5)"/><rect x="662" y="533" width="43" height="43" transform="rotate(0,683.5,554.5)"/><rect x="662" y="576" width="43" height="43" transform="rotate(0,683.5,597.5)"/><rect x="662" y="662" width="43" height="43" transform="rotate(0,683.5,683.5)"/><rect x="662" y="705" width="43" height="43" transform="rotate(0,683.5,726.5)"/><rect x="662" y="791" width="43" height="43" transform="rotate(0,683.5,812.5)"/><rect x="662" y="834" width="43" height="43" transform="rotate(0,683.5,855.5)"/><rect x="662" y="877" width="43" height="43" transform="rotate(0,683.5,898.5)"/><rect x="705" y="404" width="43" height="43" transform="rotate(0,726.5,425.5)"/><rect x="705" y="447" width="43" height="43" transform="rotate(0,726.5,468.5)"/><rect x="705" y="533" width="43" height="43" transform="rotate(0,726.5,554.5)"/><rect x="705" y="619" width="43" height="43" transform="rotate(0,726.5,640.5)"/><rect x="705" y="662" width="43" height="43" transform="rotate(0,726.5,683.5)"/><rect x="705" y="791" width="43" height="43" transform="rotate(0,726.5,812.5)"/><rect x="705" y="834" width="43" height="43" transform="rotate(0,726.5,855.5)"/><rect x="748" y="404" width="43" height="43" transform="rotate(0,769.5,425.5)"/><rect x="748" y="447" width="43" height="43" transform="rotate(0,769.5,468.5)"/><rect x="748" y="576" width="43" height="43" transform="rotate(0,769.5,597.5)"/><rect x="748" y="748" width="43" height="43" transform="rotate(0,769.5,769.5)"/><rect x="748" y="920" width="43" height="43" transform="rotate(0,769.5,941.5)"/><rect x="791" y="404" width="43" height="43" transform="rotate(0,812.5,425.5)"/><rect x="791" y="447" width="43" height="43" transform="rotate(0,812.5,468.5)"/><rect x="791" y="576" width="43" height="43" transform="rotate(0,812.5,597.5)"/><rect x="791" y="705" width="43" height="43" transform="rotate(0,812.5,726.5)"/><rect x="791" y="748" width="43" height="43" transform="rotate(0,812.5,769.5)"/><rect x="791" y="834" width="43" height="43" transform="rotate(0,812.5,855.5)"/><rect x="834" y="404" width="43" height="43" transform="rotate(0,855.5,425.5)"/><rect x="834" y="447" width="43" height="43" transform="rotate(0,855.5,468.5)"/><rect x="834" y="533" width="43" height="43" transform="rotate(0,855.5,554.5)"/><rect x="834" y="619" width="43" height="43" transform="rotate(0,855.5,640.5)"/><rect x="834" y="705" width="43" height="43" transform="rotate(0,855.5,726.5)"/><rect x="834" y="791" width="43" height="43" transform="rotate(0,855.5,812.5)"/><rect x="877" y="404" width="43" height="43" transform="rotate(0,898.5,425.5)"/><rect x="877" y="705" width="43" height="43" transform="rotate(0,898.5,726.5)"/><rect x="877" y="791" width="43" height="43" transform="rotate(0,898.5,812.5)"/><rect x="877" y="834" width="43" height="43" transform="rotate(0,898.5,855.5)"/><rect x="920" y="533" width="43" height="43" transform="rotate(0,941.5,554.5)"/><rect x="920" y="619" width="43" height="43" transform="rotate(0,941.5,640.5)"/><rect x="920" y="705" width="43" height="43" transform="rotate(0,941.5,726.5)"/><rect x="920" y="791" width="43" height="43" transform="rotate(0,941.5,812.5)"/><rect x="920" y="877" width="43" height="43" transform="rotate(0,941.5,898.5)"/></clipPath><clipPath id="clip-path-corners-square-color-0-0"><rect x="60" y="60" width="43" height="43" transform="rotate(0,81.5,81.5)"/><rect x="60" y="103" width="43" height="43" transform="rotate(0,81.5,124.5)"/><rect x="60" y="146" width="43" height="43" transform="rotate(0,81.5,167.5)"/><rect x="60" y="189" width="43" height="43" transform="rotate(0,81.5,210.5)"/><rect x="60" y="232" width="43" height="43" transform="rotate(0,81.5,253.5)"/><rect x="60" y="275" width="43" height="43" transform="rotate(0,81.5,296.5)"/><rect x="60" y="318" width="43" height="43" transform="rotate(0,81.5,339.5)"/><rect x="103" y="60" width="43" height="43" transform="rotate(0,124.5,81.5)"/><rect x="103" y="318" width="43" height="43" transform="rotate(0,124.5,339.5)"/><rect x="146" y="60" width="43" height="43" transform="rotate(0,167.5,81.5)"/><rect x="146" y="318" width="43" height="43" transform="rotate(0,167.5,339.5)"/><rect x="189" y="60" width="43" height="43" transform="rotate(0,210.5,81.5)"/><rect x="189" y="318" width="43" height="43" transform="rotate(0,210.5,339.5)"/><rect x="232" y="60" width="43" height="43" transform="rotate(0,253.5,81.5)"/><rect x="232" y="318" width="43" height="43" transform="rotate(0,253.5,339.5)"/><rect x="275" y="60" width="43" height="43" transform="rotate(0,296.5,81.5)"/><rect x="275" y="318" width="43" height="43" transform="rotate(0,296.5,339.5)"/><rect x="318" y="60" width="43" height="43" transform="rotate(0,339.5,81.5)"/><rect x="318" y="103" width="43" height="43" transform="rotate(0,339.5,124.5)"/><rect x="318" y="146" width="43" height="43" transform="rotate(0,339.5,167.5)"/><rect x="318" y="189" width="43" height="43" transform="rotate(0,339.5,210.5)"/><rect x="318" y="232" width="43" height="43" transform="rotate(0,339.5,253.5)"/><rect x="318" y="275" width="43" height="43" transform="rotate(0,339.5,296.5)"/><rect x="318" y="318" width="43" height="43" transform="rotate(0,339.5,339.5)"/></clipPath><clipPath id="clip-path-corners-dot-color-0-0"><rect x="146" y="146" width="43" height="43" transform="rotate(0,167.5,167.5)"/><rect x="146" y="189" width="43" height="43" transform="rotate(0,167.5,210.5)"/><rect x="146" y="232" width="43" height="43" transform="rotate(0,167.5,253.5)"/><rect x="189" y="146" width="43" height="43" transform="rotate(0,210.5,167.5)"/><rect x="189" y="189" width="43" height="43" transform="rotate(0,210.5,210.5)"/><rect x="189" y="232" width="43" height="43" transform="rotate(0,210.5,253.5)"/><rect x="232" y="146" width="43" height="43" transform="rotate(0,253.5,167.5)"/><rect x="232" y="189" width="43" height="43" transform="rotate(0,253.5,210.5)"/><rect x="232" y="232" width="43" height="43" transform="rotate(0,253.5,253.5)"/></clipPath><clipPath id="clip-path-corners-square-color-1-0"><rect x="662" y="60" width="43" height="43" transform="rotate(0,683.5,81.5)"/><rect x="662" y="103" width="43" height="43" transform="rotate(0,683.5,124.5)"/><rect x="662" y="146" width="43" height="43" transform="rotate(0,683.5,167.5)"/><rect x="662" y="189" width="43" height="43" transform="rotate(0,683.5,210.5)"/><rect x="662" y="232" width="43" height="43" transform="rotate(0,683.5,253.5)"/><rect x="662" y="275" width="43" height="43" transform="rotate(0,683.5,296.5)"/><rect x="662" y="318" width="43" height="43" transform="rotate(0,683.5,339.5)"/><rect x="705" y="60" width="43" height="43" transform="rotate(0,726.5,81.5)"/><rect x="705" y="318" width="43" height="43" transform="rotate(0,726.5,339.5)"/><rect x="748" y="60" width="43" height="43" transform="rotate(0,769.5,81.5)"/><rect x="748" y="318" width="43" height="43" transform="rotate(0,769.5,339.5)"/><rect x="791" y="60" width="43" height="43" transform="rotate(0,812.5,81.5)"/><rect x="791" y="318" width="43" height="43" transform="rotate(0,812.5,339.5)"/><rect x="834" y="60" width="43" height="43" transform="rotate(0,855.5,81.5)"/><rect x="834" y="318" width="43" height="43" transform="rotate(0,855.5,339.5)"/><rect x="877" y="60" width="43" height="43" transform="rotate(0,898.5,81.5)"/><rect x="877" y="318" width="43" height="43" transform="rotate(0,898.5,339.5)"/><rect x="920" y="60" width="43" height="43" transform="rotate(0,941.5,81.5)"/><rect x="920" y="103" width="43" height="43" transform="rotate(0,941.5,124.5)"/><rect x="920" y="146" width="43" height="43" transform="rotate(0,941.5,167.5)"/><rect x="920" y="189" width="43" height="43" transform="rotate(0,941.5,210.5)"/><rect x="920" y="232" width="43" height="43" transform="rotate(0,941.5,253.5)"/><rect x="920" y="275" width="43" height="43" transform="rotate(0,941.5,296.5)"/><rect x="920" y="318" width="43" height="43" transform="rotate(0,941.5,339.5)"/></clipPath><clipPath id="clip-path-corners-dot-color-1-0"><rect x="748" y="146" width="43" height="43" transform="rotate(0,769.5,167.5)"/><rect x="748" y="189" width="43" height="43" transform="rotate(0,769.5,210.5)"/><rect x="748" y="232" width="43" height="43" transform="rotate(0,769.5,253.5)"/><rect x="791" y="146" width="43" height="43" transform="rotate(0,812.5,167.5)"/><rect x="791" y="189" width="43" height="43" transform="rotate(0,812.5,210.5)"/><rect x="791" y="232" width="43" height="43" transform="rotate(0,812.5,253.5)"/><rect x="834" y="146" width="43" height="43" transform="rotate(0,855.5,167.5)"/><rect x="834" y="189" width="43" height="43" transform="rotate(0,855.5,210.5)"/><rect x="834" y="232" width="43" height="43" transform="rotate(0,855.5,253.5)"/></clipPath><clipPath id="clip-path-corners-square-color-0-1"><rect x="60" y="662" width="43" height="43" transform="rotate(0,81.5,683.5)"/><rect x="60" y="705" width="43" height="43" transform="rotate(0,81.5,726.5)"/><rect x="60" y="748" width="43" height="43" transform="rotate(0,81.5,769.5)"/><rect x="60" y="791" width="43" height="43" transform="rotate(0,81.5,812.5)"/><rect x="60" y="834" width="43" height="43" transform="rotate(0,81.5,855.5)"/><rect x="60" y="877" width="43" height="43" transform="rotate(0,81.5,898.5)"/><rect x="60" y="920" width="43" height="43" transform="rotate(0,81.5,941.5)"/><rect x="103" y="662" width="43" height="43" transform="rotate(0,124.5,683.5)"/><rect x="103" y="920" width="43" height="43" transform="rotate(0,124.5,941.5)"/><rect x="146" y="662" width="43" height="43" transform="rotate(0,167.5,683.5)"/><rect x="146" y="920" width="43" height="43" transform="rotate(0,167.5,941.5)"/><rect x="189" y="662" width="43" height="43" transform="rotate(0,210.5,683.5)"/><rect x="189" y="920" width="43" height="43" transform="rotate(0,210.5,941.5)"/><rect x="232" y="662" width="43" height="43" transform="rotate(0,253.5,683.5)"/><rect x="232" y="920" width="43" height="43" transform="rotate(0,253.5,941.5)"/><rect x="275" y="662" width="43" height="43" transform="rotate(0,296.5,683.5)"/><rect x="275" y="920" width="43" height="43" transform="rotate(0,296.5,941.5)"/><rect x="318" y="662" width="43" height="43" transform="rotate(0,339.5,683.5)"/><rect x="318" y="705" width="43" height="43" transform="rotate(0,339.5,726.5)"/><rect x="318" y="748" width="43" height="43" transform="rotate(0,339.5,769.5)"/><rect x="318" y="791" width="43" height="43" transform="rotate(0,339.5,812.5)"/><rect x="318" y="834" width="43" height="43" transform="rotate(0,339.5,855.5)"/><rect x="318" y="877" width="43" height="43" transform="rotate(0,339.5,898.5)"/><rect x="318" y="920" width="43" height="43" transform="rotate(0,339.5,941.5)"/></clipPath><clipPath id="clip-path-corners-dot-color-0-1"><rect x="146" y="748" width="43" height="43" transform="rotate(0,167.5,769.5)"/><rect x="146" y="791" width="43" height="43" transform="rotate(0,167.5,812.5)"/><rect x="146" y="834" width="43" height="43" transform="rotate(0,167.5,855.5)"/><rect x="189" y="748" width="43" height="43" transform="rotate(0,210.5,769.5)"/><rect x="189" y="791" width="43" height="43" transform="rotate(0,210.5,812.5)"/><rect x="189" y="834" width="43" height="43" transform="rotate(0,210.5,855.5)"/><rect x="232" y="748" width="43" height="43" transform="rotate(0,253.5,769.5)"/><rect x="232" y="791" width="43" height="43" transform="rotate(0,253.5,812.5)"/><rect x="232" y="834" width="43" height="43" transform="rotate(0,253.5,855.5)"/></clipPath></defs><rect x="0" y="0" height="1024" width="1024" clip-path="url('#clip-path-background-color')" fill="#ffffff"/><rect x="60" y="60" height="903" width="903" clip-path="url('#clip-path-dot-color')" fill="#000000"/><rect x="60" y="60" height="301" width="301" clip-path="url('#clip-path-corners-square-color-0-0')" fill="#000000"/><rect x="146" y="146" height="129" width="129" clip-path="url('#clip-path-corners-dot-color-0-0')" fill="#000000"/><rect x="662" y="60" height="301" width="301" clip-path="url('#clip-path-corners-square-color-1-0')" fill="#000000"/><rect x="748" y="146" height="129" width="129" clip-path="url('#clip-path-corners-dot-color-1-0')" fill="#000000"/><rect x="60" y="662" height="301" width="301" clip-path="url('#clip-path-corners-square-color-0-1')" fill="#000000"/><rect x="146" y="748" height="129" width="129" clip-path="url('#clip-path-corners-dot-color-0-1')" fill="#000000"/><image href="https://img.qrfy.com/img/large/473abf36-562e-4cf3-86ed-f4049e5de535.webp" x="404" y="404" width="215px" height="215px"/></svg>